<svg width="178" height="34" viewBox="0 0 178 34" fill="none" xmlns="http://www.w3.org/2000/svg">
<path d="M138.018 17.3643C138.409 17.3713 138.726 17.4791 138.975 17.694C139.218 17.9025 139.347 18.1854 139.353 18.5356C139.353 18.8448 139.272 19.215 139.118 19.646C138.962 20.0835 138.727 20.5345 138.41 20.9989C138.1 21.4698 137.715 21.9073 137.25 22.3178C136.784 22.7213 136.245 23.0581 135.631 23.307C135.017 23.5629 134.329 23.6976 133.567 23.7047C133.446 23.7047 133.324 23.7047 133.203 23.6976C133.081 23.6976 132.96 23.6842 132.839 23.6637C133.19 22.8355 133.574 22.0484 134.005 21.3011C134.437 20.5474 134.889 19.8744 135.354 19.2888C135.819 18.6967 136.278 18.2316 136.737 17.8884C137.195 17.5464 137.62 17.3713 138.018 17.3643ZM111.879 28.308C111.886 29.0886 112.068 29.802 112.439 30.4485C112.802 31.0945 113.308 31.6462 113.963 32.1177C114.617 32.5886 115.379 32.9522 116.25 33.2082C117.119 33.4641 118.063 33.5988 119.082 33.5988C119.52 33.5988 120.046 33.5315 120.674 33.3968C121.3 33.2626 121.988 33.0542 122.75 32.7643C123.512 32.4679 124.308 32.0913 125.151 31.6199C126.56 30.8187 127.585 30.1258 128.24 29.5402C128.888 28.9545 129.205 28.4227 129.198 27.9448C129.198 27.7229 129.158 27.5413 129.077 27.4131C128.995 27.2854 128.874 27.218 128.712 27.218C128.564 27.2245 128.348 27.2989 128.058 27.447C127.776 27.5946 127.424 27.7838 127.02 28.0122C126.608 28.2476 126.149 28.4895 125.637 28.7525C124.767 29.1765 123.877 29.5601 122.966 29.9168C122.056 30.267 121.18 30.5493 120.337 30.7648C119.494 30.9803 118.738 31.0881 118.071 31.0945C117.633 31.0945 117.296 31.0207 117.066 30.8732C116.837 30.725 116.688 30.4895 116.608 30.1733C116.527 29.857 116.487 29.4529 116.493 28.9551C116.5 28.2014 116.595 27.4136 116.776 26.5861C116.958 25.758 117.208 24.9375 117.518 24.1164C117.828 23.2953 118.179 22.5146 118.563 21.7808C118.948 21.0475 119.339 20.3945 119.744 19.8223C120.148 19.2501 120.533 18.7992 120.897 18.4765C121.268 18.1467 121.592 17.9786 121.875 17.9716C122.003 17.9716 122.111 17.9986 122.212 18.0589C122.313 18.1128 122.374 18.1936 122.401 18.2943C122.279 18.651 122.144 19.0686 122.009 19.533C121.868 20.0039 121.733 20.4958 121.611 21.0135C121.49 21.5313 121.389 22.0431 121.307 22.548C121.227 23.0528 121.187 23.5172 121.187 23.9483C121.193 24.4531 121.288 24.8566 121.469 25.153C121.651 25.4488 121.901 25.6578 122.211 25.7861C122.522 25.9067 122.866 25.9741 123.25 25.9676C123.682 25.9676 124.066 25.9272 124.417 25.84C124.76 25.7592 125.05 25.6245 125.273 25.4429C125.543 25.2139 125.773 24.9111 125.954 24.5345C126.137 24.1644 126.284 23.7538 126.392 23.3093C126.5 22.8718 126.575 22.4414 126.622 22.0103C126.669 21.5863 126.689 21.2097 126.689 20.88C126.689 19.9306 126.615 19.1365 126.46 18.4905C126.304 17.8439 126.061 17.3057 125.732 16.8753C125.394 16.4378 124.962 16.0676 124.424 15.7514C123.904 15.4281 123.358 15.1862 122.785 15.0246C122.211 14.8629 121.584 14.7821 120.903 14.7821C120.081 14.7956 119.285 15.0246 118.522 15.4755C117.761 15.9335 117.039 16.5455 116.371 17.3127C115.697 18.08 115.09 18.9415 114.537 19.8973C113.99 20.8531 113.519 21.8358 113.121 22.8455C112.723 23.8616 112.42 24.8379 112.203 25.7797C111.987 26.7196 111.879 27.5606 111.879 28.308ZM102.775 26.0467C102.37 26.7665 101.898 27.4464 101.366 28.0854C100.826 28.7185 100.279 29.2766 99.7336 29.768C99.1808 30.2529 98.6814 30.636 98.2366 30.9124C97.7912 31.1882 97.4538 31.3294 97.2314 31.3364C97.0559 31.3294 96.928 31.2691 96.8405 31.1478C96.7531 31.0266 96.6921 30.8655 96.6651 30.677C96.6381 30.4884 96.6246 30.2933 96.6246 30.0848C96.6316 29.358 96.746 28.5569 96.9755 27.6953C97.2114 26.8338 97.5218 25.9518 97.9197 25.0569C98.3105 24.155 98.763 23.2935 99.2612 22.466C99.7606 21.6379 100.279 20.8976 100.819 20.2381C101.366 19.5851 101.891 19.0604 102.417 18.6767C102.943 18.2931 103.422 18.0981 103.868 18.0911C104.131 18.0981 104.387 18.152 104.637 18.2732C104.893 18.3874 105.122 18.542 105.324 18.7306C105.52 18.9192 105.669 19.1213 105.77 19.3432C105.487 19.8815 105.217 20.4741 104.968 21.133C104.718 21.7925 104.428 22.5263 104.091 23.341C103.759 24.1486 103.314 25.0505 102.775 26.0467ZM102.289 15.3859C101.46 15.3924 100.664 15.5809 99.9021 15.9581C99.1333 16.3282 98.4121 16.8395 97.7308 17.4791C97.0494 18.1251 96.4157 18.8653 95.8294 19.687C95.2496 20.5146 94.7232 21.3895 94.2579 22.3049C93.7925 23.2203 93.4011 24.1351 93.0713 25.0505C92.7409 25.9659 92.4915 26.8338 92.316 27.6549C92.1405 28.476 92.0531 29.2034 92.0531 29.8424C92.0531 30.4415 92.1611 30.9464 92.3565 31.3499C92.559 31.7534 92.8424 32.0831 93.2062 32.3461C93.5636 32.6085 93.9955 32.824 94.4808 32.9921C94.9462 33.1537 95.3981 33.282 95.83 33.3757C96.2619 33.4694 96.6662 33.5168 97.0301 33.5168C97.6304 33.5168 98.1902 33.4565 98.709 33.3218C99.2213 33.1877 99.7272 32.9786 100.22 32.6823C100.712 32.3924 101.225 32.0023 101.757 31.5244C102.29 31.0401 102.87 30.4544 103.504 29.761C103.591 30.1446 103.774 30.4942 104.064 30.8105C104.347 31.1273 104.698 31.4026 105.108 31.6251C105.52 31.8541 105.965 32.0357 106.438 32.1569C106.903 32.2782 107.375 32.3455 107.833 32.3455C108.487 32.3391 109.081 32.2313 109.601 32.0087C110.12 31.7868 110.639 31.484 111.152 31.0934C111.55 30.7976 111.901 30.4813 112.211 30.151C112.521 29.8213 112.764 29.4851 112.939 29.1419C113.121 28.8052 113.209 28.469 113.216 28.1457C113.216 27.9238 113.175 27.7422 113.094 27.6145C113.013 27.4863 112.892 27.4195 112.73 27.4195C112.575 27.4195 112.406 27.4804 112.231 27.594C112.055 27.7088 111.853 27.8634 111.611 28.0655C111.368 28.2675 111.064 28.4965 110.707 28.7519C110.335 29.0078 109.972 29.2362 109.607 29.4383C109.243 29.6403 108.899 29.7949 108.583 29.9092C108.259 30.0239 107.989 30.0843 107.753 30.0843C107.611 30.0843 107.51 30.0304 107.443 29.9291C107.382 29.8213 107.348 29.6597 107.348 29.4377C107.355 28.8725 107.443 28.206 107.611 27.4523C107.78 26.6921 108.003 25.9044 108.273 25.0833C108.536 24.2692 108.825 23.4815 109.122 22.7342C109.426 21.9875 109.709 21.3415 109.979 20.7957C110.14 20.4659 110.302 20.21 110.443 20.0285C110.592 19.8399 110.714 19.6858 110.808 19.5576C110.895 19.4363 110.949 19.2952 110.949 19.14C110.936 18.8841 110.848 18.7025 110.68 18.6018C110.511 18.501 110.335 18.4472 110.14 18.4536C109.938 18.4601 109.715 18.4806 109.479 18.521C109.237 18.5614 108.987 18.5883 108.724 18.6153C108.541 18.0431 108.299 17.5991 107.996 17.2758C107.686 16.9526 107.342 16.6972 106.957 16.5215C106.573 16.347 106.182 16.1988 105.77 16.0706C105.285 15.9019 104.759 15.7473 104.186 15.6061C103.604 15.4667 102.977 15.3924 102.289 15.3859ZM83.757 28.8327C83.7705 29.4857 83.926 30.0644 84.2359 30.5487C84.5463 31.0401 84.9442 31.4506 85.4295 31.7739C85.9083 32.1036 86.4072 32.3461 86.9335 32.5077C87.4529 32.6688 87.9318 32.7502 88.3695 32.7502C89.1119 32.7432 89.8202 32.636 90.4874 32.4269C91.1611 32.2184 91.789 31.9496 92.3553 31.6128C92.9222 31.2831 93.4146 30.9264 93.833 30.5493C94.2579 30.1791 94.5806 29.8154 94.8171 29.4793C95.0466 29.1361 95.1616 28.8538 95.168 28.6312C95.168 28.4497 95.1275 28.3015 95.0466 28.1937C94.9656 28.086 94.8447 28.0257 94.6827 28.0257C94.5613 28.0321 94.3189 28.1065 93.9615 28.2541C93.6106 28.4022 93.1863 28.5908 92.7068 28.8064C92.2215 29.0283 91.7292 29.2438 91.2233 29.4658C90.7239 29.6813 90.2656 29.8693 89.8472 30.0175C89.4364 30.1657 89.1195 30.2395 88.8971 30.2465C88.6741 30.2465 88.5121 30.1727 88.4048 30.0316C88.3032 29.8898 88.2492 29.6813 88.2492 29.3985C88.2557 28.7929 88.3502 28.0122 88.5391 27.0558C88.7216 26.107 88.9775 25.0306 89.3014 23.8388C89.6248 22.6475 89.9892 21.3889 90.4006 20.0695C90.812 18.7505 91.2439 17.4182 91.6951 16.0788C92.147 14.7464 92.5918 13.4544 93.0302 12.2157C93.4756 10.9706 93.8864 9.83326 94.2778 8.79664C94.6622 7.76002 94.9932 6.8786 95.276 6.15823C95.5589 5.4449 95.7678 4.93361 95.8963 4.6443C96.2748 3.8232 96.5911 3.17721 96.8405 2.71923C97.0899 2.26183 97.2789 1.92507 97.4068 1.70955C97.5353 1.48758 97.5952 1.3195 97.5952 1.21173C97.5952 1.01612 97.4943 0.828125 97.2918 0.645985C97.0893 0.46443 96.7859 0.309815 96.3881 0.188583C95.9972 0.0673511 95.5049 0.00702794 94.9251 0C94.2843 0 93.7315 0.0737933 93.252 0.221966C92.7737 0.370138 92.4023 0.592104 92.1329 0.881421C91.87 1.1643 91.735 1.52096 91.7286 1.93795C91.7286 2.01175 91.7356 2.10662 91.7415 2.22083C91.7485 2.34206 91.755 2.46271 91.7685 2.58452C91.782 2.69873 91.7961 2.79302 91.809 2.86681C91.6605 3.22348 91.4311 3.78865 91.1283 4.55586C90.8243 5.33011 90.4669 6.25194 90.0561 7.32838C89.6447 8.40541 89.2128 9.58318 88.748 10.8552C88.2827 12.1343 87.8173 13.4597 87.3449 14.8331C86.8725 16.2064 86.4212 17.5722 85.9964 18.9385C85.565 20.2979 85.1871 21.6039 84.8497 22.849C84.5123 24.0941 84.2499 25.2315 84.0539 26.2546C83.8585 27.2784 83.764 28.1399 83.757 28.8327ZM72.549 7.26923C74.5319 7.26923 76.2044 7.35005 77.553 7.49823C78.9086 7.65284 79.9878 7.86836 80.797 8.15124C81.6062 8.43353 82.1925 8.77028 82.5434 9.16092C82.9008 9.55155 83.0763 9.98202 83.0692 10.4599C83.0628 11.0385 82.8468 11.6512 82.4219 12.3112C81.9971 12.9636 81.4173 13.6237 80.6755 14.2896C79.9338 14.956 79.0905 15.5886 78.1328 16.1877C77.1756 16.7933 76.1639 17.3321 75.0912 17.8029C74.019 18.2744 72.9398 18.651 71.8471 18.9268C70.7615 19.1962 69.7093 19.3374 68.7052 19.3444H68.3003C68.9681 17.2782 69.6629 15.2254 70.3777 13.1862C71.0925 11.1457 71.8207 9.1738 72.549 7.26923ZM86.7921 11.0245C86.7921 10.4798 86.7381 9.96796 86.6307 9.49006C86.5292 9.01216 86.3948 8.58111 86.2258 8.19751C85.747 7.05312 84.9847 6.11079 83.953 5.37052C82.9214 4.63024 81.5857 4.08499 79.9608 3.72832C78.3352 3.36463 76.3863 3.1901 74.127 3.1901C73.6622 3.1901 73.2033 3.1901 72.7515 3.19713C72.2996 3.2106 71.8413 3.2311 71.3759 3.27092C71.133 3.10986 70.8701 2.9816 70.6001 2.88731C70.3308 2.79302 70.0608 2.74558 69.7979 2.74558C69.481 2.74558 69.2181 2.81293 69.0157 2.94763C68.8132 3.08234 68.6377 3.27092 68.5034 3.5128C67.2962 3.6475 66.1431 3.81617 65.0504 4.0112C63.9513 4.20622 62.9466 4.42174 62.0294 4.65718C61.1186 4.88617 60.3363 5.12864 59.6826 5.37052C59.2372 5.5386 58.8734 5.71371 58.5829 5.89527C58.3 6.07038 58.0835 6.27185 57.9491 6.50084C57.8071 6.73628 57.7396 7.01915 57.7396 7.34888C57.7466 7.67217 57.7936 7.95446 57.8881 8.19048C57.9825 8.42591 58.1034 8.60103 58.2384 8.7287C58.3734 8.85637 58.5013 8.92373 58.6298 8.92373C58.7988 8.9167 59.2302 8.83646 59.9449 8.67423C60.6532 8.51962 61.6174 8.33162 62.831 8.12254C64.0446 7.90702 65.4882 7.71902 67.1671 7.55035C66.5938 9.30031 66.0345 11.0233 65.4946 12.7329C64.9483 14.436 64.402 16.1725 63.8421 17.9423C63.2893 19.7122 62.7095 21.5699 62.0957 23.5155C61.4889 25.454 60.8275 27.5401 60.1268 29.761C59.9443 30.3127 59.7965 30.7572 59.6885 31.0934C59.5805 31.4231 59.5201 31.706 59.5201 31.9414C59.5265 32.3859 59.6075 32.7356 59.7695 32.978C59.9314 33.2269 60.1403 33.3482 60.4103 33.3552C60.6931 33.3552 60.9836 33.3487 61.28 33.3353C61.584 33.3218 61.9144 33.3148 62.2712 33.3148C62.723 33.3218 63.1273 33.2878 63.4918 33.207C63.8556 33.1262 64.1525 32.9382 64.3685 32.6553C64.5845 32.3724 64.6924 31.935 64.6989 31.3364C65.0833 29.9572 65.5011 28.4965 65.9459 26.9551C66.3913 25.4136 66.8631 23.8323 67.369 22.21H68.5022C69.2774 22.21 70.1747 22.1427 71.1993 22.015C72.218 21.8809 73.3107 21.6718 74.4639 21.396C75.617 21.1201 76.7772 20.7699 77.9438 20.3394C79.1104 19.909 80.2166 19.3971 81.2753 18.798C82.3339 18.2059 83.2717 17.5259 84.1009 16.7587C84.9301 15.985 85.578 15.13 86.0568 14.1742C86.5357 13.2184 86.7851 12.1689 86.7921 11.0245ZM55.2719 17.3643C55.6628 17.3713 55.9803 17.4791 56.2291 17.694C56.472 17.9025 56.6 18.1854 56.607 18.5356C56.607 18.8448 56.526 19.215 56.3711 19.646C56.2156 20.0835 55.9797 20.5345 55.6628 20.9989C55.3529 21.4698 54.9686 21.9073 54.5032 22.3178C54.0378 22.7213 53.4985 23.0581 52.8847 23.307C52.2709 23.5629 51.5831 23.6976 50.8208 23.7047C50.6993 23.7047 50.5778 23.7047 50.4564 23.6976C50.3349 23.6976 50.2134 23.6842 50.0919 23.6637C50.4429 22.8355 50.8273 22.0484 51.2586 21.3011C51.6899 20.5474 52.1418 19.8744 52.6071 19.2888C53.0725 18.6967 53.5308 18.2316 53.9897 17.8884C54.4486 17.5464 54.8741 17.3713 55.2719 17.3643ZM60.2888 19.3836C60.2824 18.8923 60.1409 18.4214 59.871 17.9769C59.5946 17.5394 59.2307 17.1224 58.7783 16.7452C58.3264 16.3616 57.827 16.0184 57.2877 15.7151C56.742 15.4058 56.1956 15.1429 55.6493 14.9279C55.1029 14.7124 54.5977 14.5443 54.1388 14.4301C53.6734 14.3153 53.2961 14.255 53.0062 14.255C52.3249 14.2614 51.6641 14.45 51.0373 14.8202C50.403 15.1903 49.8026 15.6951 49.2434 16.3341C48.6771 16.9736 48.1577 17.7004 47.6724 18.5151C47.1936 19.3292 46.7616 20.1842 46.3773 21.0791C45.9929 21.9811 45.6625 22.8695 45.3926 23.7579C45.1162 24.6394 44.9137 25.4739 44.7658 26.2552C44.6238 27.0423 44.5499 27.7223 44.5499 28.3074C44.5499 28.8526 44.6308 29.3575 44.7928 29.8149C44.9542 30.2664 45.2177 30.6969 45.5751 31.1074C45.9324 31.518 46.3978 31.935 46.9776 32.3455C47.3215 32.588 47.7399 32.8035 48.2458 32.9915C48.7446 33.1801 49.2909 33.3282 49.8912 33.436C50.4916 33.5438 51.1125 33.5976 51.7527 33.5976C52.5825 33.5976 53.4927 33.436 54.4973 33.1063C55.502 32.783 56.6082 32.2852 57.8223 31.6187C58.8006 31.0799 59.5893 30.5891 60.182 30.1381C60.7759 29.6866 61.2072 29.2766 61.4772 28.9135C61.7401 28.5498 61.875 28.2271 61.8686 27.9443C61.8686 27.7223 61.8281 27.5407 61.7471 27.4125C61.6655 27.2848 61.5446 27.2175 61.3827 27.2175C61.3492 27.2104 61.2952 27.2239 61.2143 27.2508C61.1403 27.2778 60.9983 27.3381 60.8029 27.4394C60.6004 27.5337 60.3041 27.6883 59.9062 27.8968C59.5148 28.1053 58.9825 28.3882 58.3077 28.7513C57.33 29.2761 56.3787 29.693 55.4621 30.0163C54.5513 30.3396 53.7286 30.568 52.9939 30.7162C52.2585 30.8644 51.6653 30.9317 51.2269 30.9317C50.8765 30.9317 50.5256 30.8445 50.1618 30.6758C49.7974 30.5071 49.4875 30.2723 49.2311 29.9624C48.9816 29.6526 48.8531 29.2895 48.8396 28.8719C48.8396 28.5082 48.8666 28.1182 48.9271 27.7006C48.9811 27.2836 49.062 26.8526 49.163 26.4081C50.8149 26.3677 52.265 26.1797 53.5056 25.8429C54.7467 25.5061 55.7983 25.0751 56.6616 24.5503C57.5313 24.0256 58.2261 23.4534 58.7589 22.8414C59.2982 22.2218 59.6826 21.6168 59.9256 21.0112C60.1744 20.4132 60.2959 19.8686 60.2888 19.3836ZM40.0177 17.3643C40.4086 17.3713 40.7254 17.4791 40.9749 17.694C41.2178 17.9025 41.3457 18.1854 41.3528 18.5356C41.3528 18.8448 41.2718 19.215 41.1169 19.646C40.9619 20.0835 40.7254 20.5345 40.4086 20.9989C40.0987 21.4698 39.7137 21.9073 39.249 22.3178C38.7836 22.7213 38.2443 23.0581 37.6305 23.307C37.0166 23.5629 36.3289 23.6976 35.5666 23.7047C35.4451 23.7047 35.3236 23.7047 35.2021 23.6976C35.0807 23.6976 34.9592 23.6842 34.8377 23.6637C35.1886 22.8355 35.573 22.0484 36.0043 21.3011C36.4363 20.5474 36.8881 19.8744 37.3529 19.2888C37.8183 18.6967 38.2772 18.2316 38.7355 17.8884C39.1944 17.5464 39.6193 17.3713 40.0177 17.3643ZM45.0346 19.3836C45.0275 18.8923 44.8861 18.4214 44.6168 17.9769C44.3404 17.5394 43.9759 17.1224 43.5241 16.7452C43.0722 16.3616 42.5734 16.0184 42.0335 15.7151C41.4872 15.4058 40.9408 15.1429 40.3951 14.9279C39.8487 14.7124 39.3429 14.5443 38.8845 14.4301C38.4192 14.3153 38.0413 14.255 37.7514 14.255C37.07 14.2614 36.4093 14.45 35.7819 14.8202C35.1482 15.1903 34.5478 15.6951 33.988 16.3341C33.4217 16.9736 32.9023 17.7004 32.417 18.5151C31.9387 19.3292 31.5068 20.1842 31.1219 21.0791C30.7375 21.9811 30.4071 22.8695 30.1372 23.7579C29.8608 24.6394 29.6583 25.4739 29.5104 26.2552C29.369 27.0423 29.2945 27.7223 29.2945 28.3074C29.2945 28.8526 29.3754 29.3575 29.5374 29.8149C29.6994 30.2664 29.9623 30.6969 30.3197 31.1074C30.677 31.518 31.1424 31.935 31.7228 32.3455C32.0667 32.588 32.4851 32.8035 32.9904 32.9915C33.4898 33.1801 34.0361 33.3282 34.6364 33.436C35.2362 33.5438 35.8571 33.5976 36.4973 33.5976C37.3271 33.5976 38.2373 33.436 39.2419 33.1063C40.2466 32.783 41.3528 32.2852 42.5669 31.6187C43.5452 31.0799 44.3339 30.5891 44.9272 30.1381C45.5205 29.6866 45.9524 29.2766 46.2218 28.9135C46.4847 28.5498 46.6196 28.2271 46.6132 27.9443C46.6132 27.7223 46.5727 27.5407 46.4917 27.4125C46.4107 27.2848 46.2892 27.2175 46.1273 27.2175C46.0938 27.2104 46.0398 27.2239 45.9589 27.2508C45.8849 27.2778 45.7429 27.3381 45.5475 27.4394C45.345 27.5337 45.0481 27.6883 44.6508 27.8968C44.2594 28.1053 43.7271 28.3882 43.0523 28.7513C42.0746 29.2761 41.1233 29.693 40.2061 30.0163C39.2953 30.3396 38.4732 30.568 37.7379 30.7162C37.0031 30.8644 36.4093 30.9317 35.9715 30.9317C35.6206 30.9317 35.2696 30.8445 34.9058 30.6758C34.5414 30.5071 34.2315 30.2723 33.9751 29.9624C33.7257 29.6526 33.5971 29.2895 33.5836 28.8719C33.5836 28.5082 33.6106 28.1182 33.6711 27.7006C33.7251 27.2836 33.8061 26.8526 33.907 26.4081C35.5589 26.3677 37.009 26.1797 38.2502 25.8429C39.4907 25.5061 40.5429 25.0751 41.4062 24.5503C42.2759 24.0256 42.9707 23.4534 43.5035 22.8414C44.0428 22.2218 44.4272 21.6168 44.6702 21.0112C44.9202 20.4132 45.0416 19.8686 45.0346 19.3836ZM150.642 21.4832C150.649 20.9919 150.797 20.5544 151.087 20.1907C151.37 19.8205 151.748 19.5107 152.213 19.2689C152.672 19.0199 153.178 18.8378 153.717 18.7172C154.257 18.5965 154.782 18.5356 155.295 18.5356C155.99 18.542 156.556 18.5965 156.988 18.6902C157.42 18.791 157.757 18.8852 158 18.986C158.235 19.0803 158.418 19.1341 158.532 19.1406C158.701 19.1341 158.842 19.0797 158.944 18.9795C159.045 18.8718 159.139 18.7371 159.214 18.576C159.288 18.4214 159.375 18.2592 159.463 18.0911C159.572 17.889 159.679 17.7075 159.78 17.5324C159.888 17.3637 159.941 17.2026 159.948 17.041C159.941 16.7722 159.787 16.5362 159.49 16.3206C159.2 16.1121 158.809 15.9236 158.323 15.7689C157.845 15.6143 157.312 15.479 156.739 15.3719C156.166 15.2711 155.599 15.1897 155.039 15.1429C154.48 15.0896 153.967 15.062 153.515 15.062C152.767 15.062 151.997 15.1762 151.229 15.3918C150.453 15.6143 149.711 15.9236 149.003 16.3206C148.288 16.7242 147.654 17.2026 147.095 17.7479C146.535 18.2996 146.09 18.9057 145.76 19.5716C145.436 20.2311 145.267 20.938 145.26 21.6853C145.267 22.3582 145.422 22.9573 145.719 23.4956C146.016 24.0274 146.399 24.5117 146.865 24.9357C147.33 25.3662 147.83 25.7498 148.355 26.1C148.881 26.4502 149.381 26.7729 149.846 27.0763C150.311 27.3721 150.696 27.662 150.992 27.9443C151.289 28.2201 151.444 28.5024 151.451 28.7923C151.457 29.1425 151.316 29.4318 151.019 29.6538C150.729 29.8828 150.25 29.997 149.59 30.004C148.975 29.9976 148.409 29.9232 147.89 29.775C147.378 29.6269 146.905 29.4383 146.494 29.2233C146.076 29.0014 145.712 28.7859 145.402 28.5639C145.085 28.3484 144.828 28.1604 144.62 28.0122L144.612 28.0063C144.613 27.9858 144.613 27.9653 144.613 27.9448C144.613 27.7229 144.572 27.5413 144.491 27.4131C144.41 27.2854 144.289 27.218 144.127 27.218C144.093 27.211 144.039 27.2245 143.958 27.2514C143.884 27.2784 143.743 27.3387 143.547 27.44C143.345 27.5343 143.048 27.6889 142.651 27.8974C142.259 28.1059 141.727 28.3888 141.052 28.7519C140.075 29.2766 139.123 29.6936 138.206 30.0169C137.295 30.3402 136.473 30.5686 135.738 30.7168C135.003 30.865 134.409 30.9323 133.971 30.9323C133.62 30.9323 133.27 30.845 132.906 30.6764C132.541 30.5077 132.231 30.2728 131.975 29.963C131.725 29.6532 131.597 29.2901 131.584 28.8725C131.584 28.5088 131.611 28.1188 131.671 27.7012C131.725 27.2842 131.806 26.8532 131.907 26.4087C133.559 26.3682 135.009 26.1802 136.25 25.8435C137.491 25.5067 138.542 25.0757 139.406 24.5509C140.276 24.0262 140.97 23.454 141.503 22.842C142.043 22.2223 142.427 21.6174 142.67 21.0118C142.92 20.4126 143.04 19.8674 143.033 19.3831C143.027 18.8917 142.885 18.4208 142.616 17.9763C142.339 17.5388 141.975 17.1218 141.523 16.7447C141.071 16.361 140.572 16.0178 140.033 15.7145C139.487 15.4052 138.94 15.1423 138.394 14.9273C137.847 14.7118 137.342 14.5437 136.883 14.4295C136.418 14.3147 136.041 14.2544 135.75 14.2544C135.069 14.2609 134.409 14.4494 133.781 14.8196C133.148 15.1897 132.547 15.6946 131.987 16.3335C131.421 16.9731 130.901 17.6999 130.416 18.5145C129.938 19.3286 129.506 20.1837 129.121 21.0785C128.737 21.9805 128.406 22.8689 128.137 23.7574C127.86 24.6388 127.658 25.4734 127.51 26.2546C127.368 27.0418 127.294 27.7217 127.294 28.3068C127.294 28.852 127.375 29.3569 127.537 29.8143C127.698 30.2658 127.962 30.6963 128.318 31.1068C128.676 31.5174 129.141 31.9344 129.722 32.3449C130.065 32.5874 130.484 32.8029 130.989 32.9909C131.489 33.1795 132.035 33.3277 132.635 33.4354C133.235 33.5432 133.856 33.5971 134.497 33.5971C135.326 33.5971 136.237 33.4354 137.241 33.1057C138.246 32.7824 139.352 32.2846 140.566 31.6181C141.363 31.1789 142.034 30.7718 142.576 30.3923C142.779 30.554 143.052 30.7326 143.398 30.9317C144.342 31.4635 145.219 31.8805 146.042 32.1839C146.864 32.4866 147.646 32.6951 148.389 32.8164C149.124 32.9376 149.832 32.9979 150.52 32.9909C151.376 32.9845 152.186 32.8767 152.941 32.6547C153.696 32.4392 154.371 32.13 154.951 31.7329C155.531 31.3423 155.99 30.8778 156.326 30.3531C156.657 29.8213 156.826 29.2491 156.832 28.6301C156.825 28.1451 156.67 27.7012 156.374 27.2907C156.077 26.8801 155.693 26.4895 155.227 26.1193C154.762 25.7556 154.262 25.3919 153.737 25.0423C153.211 24.6856 152.712 24.329 152.247 23.9653C151.781 23.5951 151.397 23.2115 151.1 22.8074C150.804 22.3986 150.649 21.9611 150.642 21.4832ZM169.811 14.5127C169.811 15.3338 168.43 16.8126 167.685 17.2003C167.226 17.4492 166.72 17.6308 166.181 17.752C165.641 17.8732 165.115 17.9341 164.603 17.9341C163.908 17.9277 163.342 17.8732 162.91 17.7795C162.479 17.6788 162.141 17.5845 161.898 17.4838C161.662 17.3895 161.48 17.3356 161.366 17.3286C161.197 17.335 161.056 17.3895 160.954 17.4902C160.853 17.598 160.759 17.7327 160.685 17.8937C160.61 18.0483 160.523 18.21 160.435 18.3786C160.327 18.5801 160.219 18.7623 160.118 18.9374C160.01 19.1055 159.957 19.2671 159.95 19.4287C159.957 19.6976 160.111 19.9336 160.408 20.1485C160.698 20.357 161.089 20.5456 161.574 20.7002C162.053 20.8548 162.586 20.9895 163.159 21.0973C163.733 21.1986 164.299 21.2794 164.858 21.3263C165.418 21.3802 165.931 21.4071 166.382 21.4071C167.131 21.4071 167.9 21.2929 168.669 21.0774C169.445 20.8554 170.186 20.5456 170.895 20.1485C172.345 19.3292 174.234 17.7414 174.566 15.5792C174.868 16.135 175.201 16.6217 175.545 16.9631C175.843 17.4029 176.528 17.6144 177.15 17.4375C177.824 17.2466 178.168 16.672 177.919 16.1555C173.603 6.63262 176.667 8.08213 165.893 14.3399C165.181 14.4125 164.681 14.9145 164.775 15.4609C164.87 16.0073 165.524 16.3909 166.237 16.3183C168.067 15.3812 169.111 14.8664 169.811 14.5127ZM9.34671 30.2459C8.46997 30.2395 7.66073 30.1651 6.91251 30.0105C6.16371 29.8623 5.50938 29.6602 4.95013 29.4113C4.38383 29.1624 3.94546 28.893 3.63503 28.5902C3.31755 28.2945 3.16262 27.9976 3.15617 27.7018C3.16321 27.5407 3.2037 27.3855 3.27119 27.2303C3.34513 27.0757 3.41262 26.9141 3.48656 26.7595C3.55404 26.6048 3.59454 26.4502 3.60158 26.2886C3.59454 26.0801 3.54055 25.8915 3.42611 25.7029C3.31168 25.5208 3.16967 25.3732 2.99479 25.2584C2.82578 25.1372 2.6509 25.0833 2.46898 25.0763C2.08461 25.0833 1.70023 25.2244 1.3223 25.4933C0.951424 25.7691 0.640987 26.1392 0.391582 26.6107C0.142176 27.0751 0.00720372 27.5999 0.000161684 28.1855C-0.00688036 29.0271 0.216118 29.8008 0.667982 30.5071C1.11985 31.214 1.83461 31.826 2.80583 32.3514C3.77059 32.8697 5.03815 33.2732 6.58916 33.5625C8.14017 33.8518 10.0222 33.993 12.2199 34C13.2515 34 14.3442 33.9057 15.4973 33.7306C16.6505 33.549 17.7966 33.2867 18.9497 32.9499C20.1028 32.6067 21.1955 32.1962 22.2342 31.7048C23.2729 31.2199 24.1966 30.6752 25.0059 30.0556C25.8151 29.4436 26.4559 28.7706 26.9213 28.0432C27.3867 27.3158 27.6296 26.5422 27.6361 25.7211C27.6296 25.0142 27.4136 24.3951 27.0023 23.8499C26.5909 23.3046 26.024 22.8267 25.3093 22.4162C24.588 21.9992 23.7717 21.6355 22.8545 21.3122C21.9373 20.996 20.9725 20.7067 19.9544 20.4507C18.9427 20.1948 17.9251 19.9593 16.9134 19.7309C15.9017 19.509 14.944 19.287 14.0402 19.058C12.7791 18.7418 11.7944 18.4724 11.0732 18.2434C10.352 18.0214 9.83906 17.7924 9.53508 17.5704C9.23873 17.3414 9.09672 17.072 9.10376 16.7558C9.1108 16.224 9.31267 15.6588 9.69764 15.0462C10.082 14.4407 10.6078 13.8146 11.2751 13.1821C11.9429 12.5425 12.7052 11.917 13.5543 11.3044C14.4041 10.6918 15.2943 10.1132 16.2321 9.57498C17.1622 9.03617 18.0929 8.55886 19.0101 8.14772C19.9274 7.73659 20.7971 7.41389 21.5999 7.17845C22.4091 6.94302 23.1104 6.82823 23.7107 6.82179C23.8662 6.82179 24.0276 6.84873 24.1966 6.91608C24.3721 6.98343 24.534 7.09822 24.6825 7.2663C24.8239 7.42795 24.9319 7.65694 25.0059 7.9527C24.9853 8.1079 24.9718 8.2426 24.9718 8.34334C24.9654 8.4511 24.9654 8.5653 24.9654 8.68009C24.9654 9.21187 25.0264 9.75712 25.1608 10.3153C25.2958 10.867 25.5117 11.493 25.8151 12.1929C26.1725 13.021 26.4759 13.66 26.7323 14.1109C26.9823 14.5619 27.2247 14.8781 27.4477 15.0527C27.6771 15.2278 27.9265 15.3092 28.2029 15.3016C28.5063 15.2951 28.7898 15.2143 29.0662 15.0661C29.3361 14.9115 29.599 14.7229 29.8619 14.494C30.0509 14.3393 30.2328 14.1578 30.3948 13.9557C30.5638 13.7472 30.6988 13.4714 30.7997 13.1212C30.9006 12.778 30.9546 12.3206 30.9546 11.7484C30.9482 11.2435 30.8402 10.6854 30.6242 10.0728C30.4077 9.45375 30.1184 8.81421 29.761 8.14772C29.4036 7.48827 29.0051 6.82881 28.5674 6.1758C28.156 5.55031 27.7781 5.00506 27.4207 4.53361C27.0633 4.06273 26.6995 3.67268 26.321 3.35584C25.9436 3.04603 25.5188 2.81059 25.0399 2.65598C24.561 2.50136 24.0012 2.42054 23.3475 2.42054C22.6732 2.42054 21.8569 2.53474 20.8992 2.76374C19.935 2.9857 18.8963 3.31543 17.7837 3.73301C16.6646 4.15703 15.5314 4.66128 14.3847 5.25397C13.238 5.84607 12.1395 6.50553 11.0867 7.23233C10.0351 7.96617 9.09085 8.7533 8.26106 9.60134C7.4254 10.4429 6.77108 11.3308 6.28518 12.2597C5.79987 13.1955 5.55692 14.1508 5.54342 15.1399C5.54342 15.4298 5.55692 15.7596 5.59037 16.1162C5.6244 16.4723 5.68485 16.8091 5.78578 17.1189C5.90726 18.2088 6.25819 19.1312 6.84444 19.8715C7.42482 20.6182 8.22702 21.2513 9.24518 21.7696C10.2704 22.2879 11.5045 22.7588 12.9475 23.1758C13.5344 23.3509 14.1946 23.526 14.9299 23.7011C15.6652 23.8757 16.4275 24.0508 17.2091 24.2259C17.9984 24.401 18.7537 24.5826 19.4955 24.7577C20.2302 24.9328 20.8915 25.1073 21.4854 25.2895C22.0717 25.464 22.5441 25.6455 22.8944 25.8206C23.2383 26.0028 23.4202 26.1843 23.4273 26.3659C23.4208 26.6822 23.1843 26.999 22.7325 27.3147C22.2876 27.6245 21.6738 27.9273 20.8986 28.2166C20.1298 28.5059 19.2531 28.7689 18.2825 29.0178C17.3113 29.2602 16.2995 29.4752 15.2479 29.6567C14.1957 29.8453 13.157 29.9865 12.1459 30.0878C11.1348 30.1891 10.1964 30.2459 9.34671 30.2459Z" fill="#DA0135"/>
</svg>
